HIERARCHY
ROOT newVegas:Hips
{
	OFFSET 0.000000 96.479958 0.000000
	CHANNELS 6 Xposition Yposition Zposition Xrotation Yrotation Zrotation
	JOINT newVegas:Pelvis
	{
		OFFSET 0.000000 0.000000 0.000000
		CHANNELS 3 Xrotation Yrotation Zrotation
		JOINT newVegas:LeftUpLeg
		{
			OFFSET 18.735201 -5.666702 -4.541200
			CHANNELS 3 Xrotation Yrotation Zrotation
			JOINT newVegas:LeftLeg
			{
				OFFSET -0.021200 -31.938179 0.493100
				CHANNELS 3 Xrotation Yrotation Zrotation
				JOINT newVegas:LeftFoot
				{
					OFFSET 0.021200 -31.938179 -4.336299
					CHANNELS 3 Xrotation Yrotation Zrotation
					JOINT newVegas:LeftToeBase
					{
						OFFSET 0.943001 -26.722000 15.023500
						CHANNELS 3 Xrotation Yrotation Zrotation
						End Site
						{
							OFFSET 0.000000 30.670183 0.000000
						}
					}
				}
				JOINT newVegas:Left_PantLeg
				{
					OFFSET 0.663870 -9.044666 -1.108900
					CHANNELS 3 Xrotation Yrotation Zrotation
					End Site
					{
						OFFSET 1.415995 20.635357 0.000000
					}
				}
			}
		}
		JOINT newVegas:RightUpLeg
		{
			OFFSET -18.735201 -5.666702 -4.541200
			CHANNELS 3 Xrotation Yrotation Zrotation
			JOINT newVegas:RightLeg
			{
				OFFSET 0.018946 -31.938133 0.493100
				CHANNELS 3 Xrotation Yrotation Zrotation
				JOINT newVegas:RightFoot
				{
					OFFSET -0.018946 -31.938126 -4.336299
					CHANNELS 3 Xrotation Yrotation Zrotation
					JOINT newVegas:RightToeBase
					{
						OFFSET -0.943001 -26.722004 15.023500
						CHANNELS 3 Xrotation Yrotation Zrotation
						End Site
						{
							OFFSET 0.000000 30.670187 0.000000
						}
					}
				}
				JOINT newVegas:Right_PantLeg
				{
					OFFSET -0.661674 -9.044716 -1.108900
					CHANNELS 3 Xrotation Yrotation Zrotation
					End Site
					{
						OFFSET -1.415958 20.635269 0.000000
					}
				}
			}
		}
	}
	JOINT newVegas:Spine
	{
		OFFSET 0.000000 10.199997 -0.299500
		CHANNELS 3 Xrotation Yrotation Zrotation
		JOINT newVegas:Spine1
		{
			OFFSET 0.000000 11.900002 -1.516600
			CHANNELS 3 Xrotation Yrotation Zrotation
			JOINT newVegas:Spine2
			{
				OFFSET 0.000000 13.600006 -2.842500
				CHANNELS 3 Xrotation Yrotation Zrotation
				JOINT newVegas:Neck
				{
					OFFSET 0.000000 9.624100 -2.890100
					CHANNELS 3 Xrotation Yrotation Zrotation
					JOINT newVegas:Head
					{
						OFFSET 0.000000 14.068802 -1.351900
						CHANNELS 3 Xrotation Yrotation Zrotation
						JOINT newVegas:Hair_Back
						{
							OFFSET 0.000000 3.231903 -17.524799
							CHANNELS 3 Xrotation Yrotation Zrotation
							End Site
							{
								OFFSET 0.000000 19.849884 0.000000
							}
						}
						JOINT newVegas:Hair_Front
						{
							OFFSET 0.000000 31.260406 4.573800
							CHANNELS 3 Xrotation Yrotation Zrotation
							JOINT newVegas:Hair_Front1
							{
								OFFSET 0.000000 2.284103 11.993300
								CHANNELS 3 Xrotation Yrotation Zrotation
								JOINT newVegas:Hair_Front2
								{
									OFFSET 0.000000 2.284103 11.993300
									CHANNELS 3 Xrotation Yrotation Zrotation
									End Site
									{
										OFFSET 0.000000 12.208862 0.000000
									}
								}
							}
						}
						JOINT newVegas:Jowel
						{
							OFFSET 0.000000 -7.458206 6.864100
							CHANNELS 3 Xrotation Yrotation Zrotation
							End Site
							{
								OFFSET 0.000000 19.849884 0.000000
							}
						}
					}
				}
				JOINT newVegas:LeftShoulder
				{
					OFFSET 15.263000 10.923401 -0.547700
					CHANNELS 3 Xrotation Yrotation Zrotation
					JOINT newVegas:LeftArm
					{
						OFFSET 25.438599 -2.830597 -13.032500
						CHANNELS 3 Xrotation Yrotation Zrotation
						JOINT newVegas:LeftForeArm
						{
							OFFSET 29.960503 0.000000 0.000000
							CHANNELS 3 Xrotation Yrotation Zrotation
							JOINT newVegas:LeftHand
							{
								OFFSET 27.849251 0.000000 0.000000
								CHANNELS 3 Xrotation Yrotation Zrotation
								JOINT newVegas:LeftHandThumb1
								{
									OFFSET 4.487587 -3.305161 6.305391
									CHANNELS 3 Xrotation Yrotation Zrotation
									JOINT newVegas:LeftHandThumb2
									{
										OFFSET 5.480453 -3.164139 3.164143
										CHANNELS 3 Xrotation Yrotation Zrotation
										JOINT newVegas:LeftHandThumb3
										{
											OFFSET 5.159721 -2.978973 2.978967
											CHANNELS 3 Xrotation Yrotation Zrotation
											End Site
											{
												OFFSET 2.494507 5.926697 1.738678
											}
										}
									}
								}
								JOINT newVegas:LeftHandIndex1
								{
									OFFSET 18.578728 -0.527832 5.208049
									CHANNELS 3 Xrotation Yrotation Zrotation
									JOINT newVegas:LeftHandIndex2
									{
										OFFSET 3.192009 0.000000 0.000000
										CHANNELS 3 Xrotation Yrotation Zrotation
										JOINT newVegas:LeftHandIndex3
										{
											OFFSET 3.835129 0.000000 0.000000
											CHANNELS 3 Xrotation Yrotation Zrotation
											End Site
											{
												OFFSET -0.034599 3.816971 0.371180
											}
										}
									}
								}
								JOINT newVegas:LeftHandMiddle1
								{
									OFFSET 18.476105 0.000000 0.000000
									CHANNELS 3 Xrotation Yrotation Zrotation
									JOINT newVegas:LeftHandMiddle2
									{
										OFFSET 3.324875 0.000000 0.000000
										CHANNELS 3 Xrotation Yrotation Zrotation
										JOINT newVegas:LeftHandMiddle3
										{
											OFFSET 4.596550 0.000000 0.000000
											CHANNELS 3 Xrotation Yrotation Zrotation
											End Site
											{
												OFFSET 0.057701 4.578827 0.399218
											}
										}
									}
								}
								JOINT newVegas:LeftHandRing1
								{
									OFFSET 17.732719 0.121887 -4.201567
									CHANNELS 3 Xrotation Yrotation Zrotation
									JOINT newVegas:LeftHandRing2
									{
										OFFSET 2.733170 0.000000 0.000000
										CHANNELS 3 Xrotation Yrotation Zrotation
										JOINT newVegas:LeftHandRing3
										{
											OFFSET 3.178268 0.000000 0.000000
											CHANNELS 3 Xrotation Yrotation Zrotation
											End Site
											{
												OFFSET 0.119102 3.170624 0.185394
											}
										}
									}
								}
								JOINT newVegas:LeftHandPinky1
								{
									OFFSET 15.989624 -0.606689 -7.535461
									CHANNELS 3 Xrotation Yrotation Zrotation
									JOINT newVegas:LeftHandPinky2
									{
										OFFSET 2.538986 0.000000 0.000000
										CHANNELS 3 Xrotation Yrotation Zrotation
										JOINT newVegas:LeftHandPinky3
										{
											OFFSET 2.593102 0.000000 0.000000
											CHANNELS 3 Xrotation Yrotation Zrotation
											End Site
											{
												OFFSET -0.150902 2.584198 0.152708
											}
										}
									}
								}
							}
							JOINT newVegas:Left_Sleeve
							{
								OFFSET 0.267448 -0.649796 0.577675
								CHANNELS 3 Xrotation Yrotation Zrotation
								End Site
								{
									OFFSET 0.000000 15.991241 0.000000
								}
							}
							JOINT newVegas:Left_CapeC
							{
								OFFSET 15.715958 -8.608795 -6.935905
								CHANNELS 3 Xrotation Yrotation Zrotation
								JOINT newVegas:Left_CapeC1
								{
									OFFSET 0.000000 -8.688499 0.000000
									CHANNELS 3 Xrotation Yrotation Zrotation
									End Site
									{
										OFFSET 0.000000 8.688499 0.000000
									}
								}
							}
						}
						JOINT newVegas:Left_CapeB
						{
							OFFSET 26.118385 -8.608795 -7.079235
							CHANNELS 3 Xrotation Yrotation Zrotation
							JOINT newVegas:Left_CapeB1
							{
								OFFSET 0.000000 -8.688499 0.000000
								CHANNELS 3 Xrotation Yrotation Zrotation
								End Site
								{
									OFFSET 0.000000 8.688499 0.000000
								}
							}
						}
						JOINT newVegas:Left_CapeA
						{
							OFFSET 5.115639 -8.608795 -10.395809
							CHANNELS 3 Xrotation Yrotation Zrotation
							JOINT newVegas:Left_CapeA1
							{
								OFFSET 0.000000 -8.688499 0.000000
								CHANNELS 3 Xrotation Yrotation Zrotation
								End Site
								{
									OFFSET 0.000000 8.688499 0.000000
								}
							}
						}
					}
				}
				JOINT newVegas:RightShoulder
				{
					OFFSET -15.263000 10.923401 -0.547700
					CHANNELS 3 Xrotation Yrotation Zrotation
					JOINT newVegas:RightArm
					{
						OFFSET -25.438599 -2.830597 -13.032500
						CHANNELS 3 Xrotation Yrotation Zrotation
						JOINT newVegas:RightForeArm
						{
							OFFSET -29.960503 0.000000 0.000000
							CHANNELS 3 Xrotation Yrotation Zrotation
							JOINT newVegas:RightHand
							{
								OFFSET -27.849251 0.000000 0.000000
								CHANNELS 3 Xrotation Yrotation Zrotation
								JOINT newVegas:RightHandThumb1
								{
									OFFSET -4.487587 -3.305161 6.305391
									CHANNELS 3 Xrotation Yrotation Zrotation
									JOINT newVegas:RightHandThumb2
									{
										OFFSET -5.480453 -3.164139 3.164143
										CHANNELS 3 Xrotation Yrotation Zrotation
										JOINT newVegas:RightHandThumb3
										{
											OFFSET -5.159721 -2.978973 2.978967
											CHANNELS 3 Xrotation Yrotation Zrotation
											End Site
											{
												OFFSET -2.494507 5.926697 1.738678
											}
										}
									}
								}
								JOINT newVegas:RightHandIndex1
								{
									OFFSET -18.578728 -0.527832 5.208049
									CHANNELS 3 Xrotation Yrotation Zrotation
									JOINT newVegas:RightHandIndex2
									{
										OFFSET -3.192009 0.000000 0.000000
										CHANNELS 3 Xrotation Yrotation Zrotation
										JOINT newVegas:RightHandIndex3
										{
											OFFSET -3.835129 0.000000 0.000000
											CHANNELS 3 Xrotation Yrotation Zrotation
											End Site
											{
												OFFSET 0.034599 3.816971 0.371180
											}
										}
									}
								}
								JOINT newVegas:RightHandMiddle1
								{
									OFFSET -18.476105 0.000000 0.000000
									CHANNELS 3 Xrotation Yrotation Zrotation
									JOINT newVegas:RightHandMiddle2
									{
										OFFSET -3.324875 0.000000 0.000000
										CHANNELS 3 Xrotation Yrotation Zrotation
										JOINT newVegas:RightHandMiddle3
										{
											OFFSET -4.596550 0.000000 0.000000
											CHANNELS 3 Xrotation Yrotation Zrotation
											End Site
											{
												OFFSET -0.057701 4.578827 0.399218
											}
										}
									}
								}
								JOINT newVegas:RightHandRing1
								{
									OFFSET -17.732719 0.121887 -4.201567
									CHANNELS 3 Xrotation Yrotation Zrotation
									JOINT newVegas:RightHandRing2
									{
										OFFSET -2.733170 0.000000 0.000000
										CHANNELS 3 Xrotation Yrotation Zrotation
										JOINT newVegas:RightHandRing3
										{
											OFFSET -3.178268 0.000000 0.000000
											CHANNELS 3 Xrotation Yrotation Zrotation
											End Site
											{
												OFFSET -0.119102 3.170624 0.185394
											}
										}
									}
								}
								JOINT newVegas:RightHandPinky1
								{
									OFFSET -15.989624 -0.606689 -7.535461
									CHANNELS 3 Xrotation Yrotation Zrotation
									JOINT newVegas:RightHandPinky2
									{
										OFFSET -2.538986 0.000000 0.000000
										CHANNELS 3 Xrotation Yrotation Zrotation
										JOINT newVegas:RightHandPinky3
										{
											OFFSET -2.593102 0.000000 0.000000
											CHANNELS 3 Xrotation Yrotation Zrotation
											End Site
											{
												OFFSET 0.150902 2.584198 0.152708
											}
										}
									}
								}
							}
							JOINT newVegas:Right_CapeC
							{
								OFFSET -15.715958 -8.608795 -6.935905
								CHANNELS 3 Xrotation Yrotation Zrotation
								JOINT newVegas:Right_CapeC1
								{
									OFFSET 0.000000 -8.688499 0.000000
									CHANNELS 3 Xrotation Yrotation Zrotation
									End Site
									{
										OFFSET 0.000000 8.688499 0.000000
									}
								}
							}
							JOINT newVegas:Right_Sleeve
							{
								OFFSET -0.267448 -0.649994 0.577675
								CHANNELS 3 Xrotation Yrotation Zrotation
								End Site
								{
									OFFSET 0.000000 15.991302 0.000000
								}
							}
						}
						JOINT newVegas:Right_CapeA
						{
							OFFSET -5.115540 -8.608795 -10.395824
							CHANNELS 3 Xrotation Yrotation Zrotation
							JOINT newVegas:Right_CapeA1
							{
								OFFSET 0.000000 -8.688499 0.000000
								CHANNELS 3 Xrotation Yrotation Zrotation
								End Site
								{
									OFFSET 0.000000 8.688499 0.000000
								}
							}
						}
						JOINT newVegas:Right_CapeB
						{
							OFFSET -26.118187 -8.608795 -7.079266
							CHANNELS 3 Xrotation Yrotation Zrotation
							JOINT newVegas:Right_CapeB1
							{
								OFFSET 0.000000 -8.688499 0.000000
								CHANNELS 3 Xrotation Yrotation Zrotation
								End Site
								{
									OFFSET 0.000000 8.688499 0.000000
								}
							}
						}
					}
				}
				JOINT newVegas:Left_Collar
				{
					OFFSET 18.625099 8.655502 8.828100
					CHANNELS 3 Xrotation Yrotation Zrotation
					JOINT newVegas:Left_Collar1
					{
						OFFSET 14.783401 10.540405 -1.259500
						CHANNELS 3 Xrotation Yrotation Zrotation
						End Site
						{
							OFFSET 0.000000 18.199875 0.000000
						}
					}
				}
				JOINT newVegas:Collar_Back
				{
					OFFSET 0.000000 15.630707 -20.132601
					CHANNELS 3 Xrotation Yrotation Zrotation
					End Site
					{
						OFFSET 0.000000 22.523010 0.000000
					}
				}
				JOINT newVegas:Left_Peck
				{
					OFFSET 17.239599 -5.132599 25.482599
					CHANNELS 3 Xrotation Yrotation Zrotation
					End Site
					{
						OFFSET 0.000000 22.523010 0.000000
					}
				}
				JOINT newVegas:Right_Peck
				{
					OFFSET -17.239599 -5.132202 25.482599
					CHANNELS 3 Xrotation Yrotation Zrotation
					End Site
					{
						OFFSET 0.000000 22.523010 0.000000
					}
				}
				JOINT newVegas:Right_Collar
				{
					OFFSET -18.625099 8.655792 8.828100
					CHANNELS 3 Xrotation Yrotation Zrotation
					JOINT newVegas:Right_Collar1
					{
						OFFSET -14.783401 10.539993 -1.259500
						CHANNELS 3 Xrotation Yrotation Zrotation
						End Site
						{
							OFFSET 0.000000 18.199631 0.000000
						}
					}
				}
			}
		}
		JOINT newVegas:Belly
		{
			OFFSET 0.000000 -6.540398 9.014299
			CHANNELS 3 Xrotation Yrotation Zrotation
			End Site
			{
				OFFSET 0.000000 11.566666 0.000000
			}
		}
	}
	JOINT newVegas:ElvisFacialAnim_Joint
	{
		OFFSET 1.000000 -95.330101 -8.825800
		CHANNELS 3 Xrotation Yrotation Zrotation
		End Site
		{
			OFFSET 0.000000 35.315800 0.000000
		}
	}
}
MOTION
Frames: 4
Frame Time: 0.033333
2.634739 77.645554 -2.065488 -3.576883 -7.779103 13.182667 -0.000001 0.000000 0.000000 -50.768024 14.380067 9.846051 47.887471 1.150782 -0.923452 8.173022 4.908027 -6.249890 -0.000000 -0.000002 -0.000000 0.000001 0.000000 -0.000000 -29.509747 -6.617056 -41.224771 86.414092 -1.048883 3.890769 -49.684234 -12.613535 17.228951 0.000000 0.000004 0.000000 -0.000002 0.000000 -0.000002 16.185523 -6.726997 0.231493 -2.646859 -1.821673 1.798178 -2.667113 -2.200965 -1.137836 1.385248 0.875464 0.674829 1.385266 0.875468 0.674844 0.000001 0.000001 -0.000001 1.385336 0.875507 0.674831 1.385161 0.875413 0.674845 -0.000001 0.000000 0.000001 0.000001 0.000001 -0.000000 3.711323 -23.955208 3.117430 -33.638296 16.307275 -2.371249 -0.000010 -8.180496 0.000000 -58.164819 -14.915031 -8.407406 -13.174075 -15.802498 -14.008998 -1.721418 16.208502 8.149530 -0.000000 -0.000002 -0.000005 0.313177 20.309762 10.823349 0.061015 0.844396 -8.269123 -0.000003 -0.000001 0.000002 0.381495 4.270754 -17.253235 0.349538 1.995116 -19.873095 0.000001 -0.000000 0.000000 -5.801914 -4.784222 -34.072894 2.177595 4.557286 -51.060886 -0.000001 -0.000002 0.000001 -30.020679 -2.944081 -46.633421 2.421869 4.743660 -54.073443 0.000001 0.000000 -0.000003 -0.000000 0.000001 0.000001 -0.000000 0.000001 0.000001 -0.000001 0.000002 0.000001 -0.000003 0.000002 0.000000 -0.000003 0.000001 -0.000000 -0.000003 0.000002 0.000000 -0.000003 0.000001 -0.000000 8.237703 19.702900 -9.693363 -8.724890 27.931707 12.837068 0.000095 78.712172 -0.000096 -61.645968 36.464085 23.662367 -15.184086 9.808231 2.563133 5.859055 -8.770071 -1.435804 0.000001 -0.000005 -0.000001 7.491313 -22.072584 5.926384 0.043079 -0.632694 7.791042 -0.000002 0.000001 0.000003 -0.924183 -4.870270 65.923511 2.527271 -4.142529 62.758906 0.000000 0.000001 -0.000000 -12.892020 2.434826 60.817391 3.281967 -4.449921 72.807146 -0.000001 0.000001 0.000000 -35.763506 -3.861795 61.295497 3.697984 -4.557508 78.102086 -0.000000 0.000003 0.000002 -0.000001 0.000002 0.000001 0.000001 0.000001 0.000001 -0.000001 0.000001 0.000001 0.000000 0.000001 0.000001 0.000001 0.000002 -0.000001 0.000000 0.000001 0.000001 0.000001 0.000002 -0.000001 0.000000 -0.000000 -0.000001 0.000000 -0.000000 -0.000001 0.000000 -0.000000 -0.000001 0.000000 -0.000000 -0.000001 0.000000 -0.000000 -0.000001 0.000000 -0.000000 -0.000001 0.000000 -0.000000 -0.000001 0.000001 0.000001 -0.000000 -0.000001 0.000000 0.000000 
2.231522 78.635963 -2.773029 -3.110604 -4.258464 11.990245 0.000000 0.000000 0.000000 -50.089459 11.597363 7.731295 41.997286 0.845800 -0.638710 12.642262 5.144846 -6.490078 -0.000000 -0.000000 0.000000 0.000000 0.000001 0.000000 -29.674860 -12.094735 -40.075483 83.072674 -1.357807 3.638218 -48.888684 -12.912614 15.830790 -0.000000 0.000004 0.000000 0.000001 -0.000001 -0.000001 15.619978 -6.602734 1.026930 -2.591412 -1.832418 2.158829 -2.609626 -2.225887 -0.774744 1.478882 0.771712 0.817539 1.478823 0.771719 0.817540 0.000000 0.000000 -0.000001 1.478604 0.771711 0.817560 1.478974 0.771670 0.817562 -0.000000 -0.000001 -0.000004 0.000000 0.000000 -0.000000 3.763967 -23.741811 2.677671 -41.039765 13.809928 -4.713267 -0.000000 -11.800478 -0.000003 -49.830646 -13.250579 -11.162004 -13.892507 -15.043860 -14.235639 -0.313480 18.764054 7.722066 0.000001 -0.000001 -0.000004 1.439096 21.078275 3.189264 0.067162 0.885656 -8.676405 -0.000001 0.000001 0.000004 0.270545 4.142403 -26.173695 0.603652 2.591944 -26.215668 0.000002 -0.000000 -0.000001 -7.165855 -6.150719 -35.788084 1.578177 4.000859 -43.040673 0.000003 -0.000000 -0.000004 -29.902305 -3.730297 -45.544746 2.131387 4.519689 -50.477379 0.000001 -0.000003 -0.000003 0.000000 0.000001 0.000000 0.000000 0.000001 0.000000 -0.000000 0.000001 0.000001 0.000001 -0.000002 -0.000000 0.000001 -0.000003 0.000000 0.000001 -0.000002 -0.000000 0.000001 -0.000003 -0.000001 7.909147 20.330476 -7.012439 -4.546817 22.376979 11.357339 -0.000056 80.824757 0.000064 -47.143407 37.805575 12.954258 -15.305288 8.570411 2.935345 6.897706 -11.631150 -1.363956 -0.000000 -0.000004 0.000004 8.073080 -21.802034 14.377044 0.078300 -0.851344 10.510310 -0.000001 0.000002 0.000007 -1.901058 -4.258591 64.143509 2.417497 -4.084303 61.228678 -0.000000 0.000003 0.000001 -13.882792 3.748171 59.050681 3.065562 -4.377311 69.995977 0.000000 -0.000001 -0.000001 -36.538934 -1.430758 59.043591 3.409037 -4.487156 74.438543 0.000001 -0.000000 -0.000000 0.000003 0.000000 0.000001 0.000003 0.000000 0.000000 0.000003 0.000000 0.000001 -0.000001 0.000002 0.000001 -0.000000 0.000003 0.000000 -0.000001 0.000002 0.000001 -0.000000 0.000003 0.000002 -0.000000 -0.000000 0.000000 -0.000000 -0.000000 0.000000 -0.000000 -0.000000 0.000000 -0.000000 -0.000000 0.000000 -0.000000 -0.000000 0.000000 -0.000000 -0.000000 0.000000 -0.000000 -0.000000 0.000000 0.000001 -0.000000 -0.000001 0.000000 0.000000 0.000000 
1.750290 79.931854 -3.586902 -2.398216 -0.180118 10.531826 0.000000 -0.000000 -0.000000 -49.957093 8.388334 5.767078 38.376176 0.712829 -0.496423 11.735870 5.497428 -6.292658 -0.000000 -0.000000 -0.000000 -0.000001 -0.000001 -0.000000 -29.741844 -18.590793 -38.711060 78.525565 -1.717261 3.289767 -47.487546 -13.080753 14.369738 -0.000000 0.000005 0.000000 0.000001 -0.000001 0.000001 14.673695 -5.964554 1.772107 -2.669265 -1.716927 2.590267 -2.682083 -2.128161 -0.345028 1.665050 0.606328 0.860231 1.665046 0.606332 0.860226 0.000000 -0.000000 -0.000000 1.665050 0.606337 0.860229 1.665117 0.606286 0.860237 -0.000000 0.000000 -0.000001 0.000000 -0.000000 0.000000 3.491732 -23.595780 1.519469 -48.065414 11.348139 -8.718668 0.000007 -16.049082 0.000003 -41.661258 -10.869579 -14.573853 -14.819320 -13.728077 -14.420454 0.824407 20.392795 7.150513 -0.000000 0.000001 -0.000003 2.708271 21.578536 -5.072720 0.089334 1.020160 -10.006991 0.000001 -0.000003 0.000003 -0.123381 3.810758 -33.076960 0.794428 2.947532 -30.162477 -0.000002 -0.000001 -0.000000 -8.802658 -7.190229 -38.580914 1.090853 3.406160 -35.507230 0.000001 -0.000002 0.000001 -29.826668 -4.185623 -44.911550 1.819266 4.243713 -46.393486 -0.000000 -0.000001 -0.000003 -0.000001 -0.000000 -0.000002 -0.000001 -0.000000 -0.000002 -0.000002 0.000000 -0.000002 -0.000001 0.000000 0.000001 -0.000001 -0.000001 0.000002 -0.000001 0.000000 0.000001 -0.000002 -0.000001 -0.000000 7.327261 20.407463 -3.593374 0.885973 15.082728 10.542729 -0.000033 83.086362 -0.000018 -30.001500 37.037715 -0.390281 -15.356695 7.000289 3.282762 8.347219 -16.144921 -1.254299 -0.000002 -0.000006 -0.000001 8.726789 -21.726429 23.026222 0.133886 -1.109833 13.757415 -0.000001 0.000001 -0.000001 -3.026165 -3.446343 62.003064 2.287223 -4.010187 59.382949 0.000001 -0.000001 -0.000002 -14.959480 5.424477 56.907797 2.810573 -4.276160 66.617048 0.000000 -0.000001 0.000001 -37.346102 1.588400 56.421191 3.068467 -4.378362 70.034239 -0.000000 0.000002 -0.000000 0.000000 -0.000002 -0.000000 0.000002 -0.000002 0.000000 0.000000 -0.000002 -0.000001 0.000001 0.000002 -0.000003 0.000002 0.000003 -0.000002 0.000001 0.000002 -0.000003 0.000002 0.000003 -0.000003 -0.000000 0.000001 0.000000 -0.000000 0.000001 0.000000 -0.000000 0.000001 0.000000 -0.000000 0.000001 0.000000 -0.000000 0.000001 0.000000 -0.000000 0.000001 0.000000 -0.000000 0.000001 0.000000 -0.000001 0.000000 0.000000 0.000000 -0.000000 -0.000000 
1.278366 81.250404 -4.412214 -1.596091 4.028278 9.199630 -0.000000 -0.000000 0.000000 -49.874550 6.125081 3.959135 36.091027 0.710399 -0.418205 8.437840 5.841743 -5.426853 -0.000000 -0.000002 -0.000000 0.000001 0.000001 0.000001 -29.634497 -24.966133 -37.500273 73.693001 -1.975534 2.915975 -45.843547 -13.328383 13.122579 -0.000000 0.000005 0.000000 0.000001 -0.000002 -0.000001 13.681379 -5.101334 2.049888 -2.816803 -1.524416 2.939480 -2.823994 -1.951593 -0.001242 1.835153 0.418585 0.870808 1.835158 0.418585 0.870816 0.000001 -0.000000 -0.000001 1.834978 0.418594 0.870811 1.835207 0.418555 0.870823 -0.000000 0.000000 -0.000000 0.000001 -0.000000 0.000000 3.030122 -23.651765 0.064464 -52.117110 9.737999 -13.602721 -0.000002 -20.787006 0.000001 -35.482710 -8.518974 -16.748698 -15.929347 -12.198634 -14.618598 1.941906 21.723007 6.457493 0.000003 -0.000001 -0.000004 4.637854 21.520410 -13.205655 0.121359 1.187505 -11.670235 0.000001 0.000001 0.000001 -0.404413 3.714344 -37.227273 0.758051 2.884083 -29.446947 0.000002 -0.000000 0.000000 -10.294476 -8.026307 -40.871268 0.673922 2.729871 -27.728989 0.000003 -0.000001 0.000002 -29.684706 -4.966450 -43.820510 1.495053 3.910167 -41.835879 -0.000001 -0.000002 -0.000002 0.000002 -0.000003 -0.000001 0.000002 -0.000003 -0.000001 0.000001 -0.000003 -0.000001 0.000002 0.000004 0.000002 0.000002 0.000003 0.000001 0.000002 0.000004 0.000002 0.000000 0.000003 0.000001 6.559842 19.806548 0.148704 6.866659 8.021614 11.679415 -0.000128 84.645790 0.000137 -15.114346 34.431380 -12.329868 -15.407505 5.410485 3.685410 9.913483 -20.880295 -1.011846 -0.000001 -0.000006 -0.000003 10.053332 -21.159738 29.348790 0.219812 -1.415241 17.654618 0.000001 0.000000 0.000000 -4.209221 -2.452119 59.657891 2.150793 -3.926458 57.411900 0.000002 -0.000004 -0.000001 -16.074505 7.409155 54.609278 2.542294 -4.150202 62.966544 -0.000001 0.000004 -0.000001 -38.152774 4.997870 53.725138 2.705034 -4.229083 65.194033 -0.000001 0.000002 -0.000002 0.000001 0.000000 -0.000003 0.000001 -0.000002 -0.000003 0.000001 -0.000000 -0.000001 -0.000002 0.000003 0.000001 -0.000001 0.000003 0.000000 -0.000002 0.000003 0.000001 -0.000001 0.000003 0.000002 -0.000000 -0.000000 0.000001 -0.000000 -0.000000 0.000001 -0.000000 -0.000000 0.000001 -0.000000 -0.000000 0.000001 -0.000000 -0.000000 0.000001 -0.000000 -0.000000 0.000001 -0.000000 -0.000000 0.000001 0.000001 0.000000 0.000001 -0.000000 -0.000000 0.000000 
